# xmcd CD database file
#
# Track frame offsets:
#	187
#	18450
#	38072
#	56352
#	74750
#	89910
#	107395
#	131380
#	150800
#	173222
#	199367
#
# Disc length: 2972 seconds
#
# Revision: 0
# Processed by: cddbd v1.5PL3 Copyright (c) Steve Scherf et al.
# Submitted via: CDex 1.51
#
DISCID=8f0b9a0b
DTITLE=オムニバス - ROYAL STRAIGHT SOUL II
DYEAR=1993
DGENRE=Japanese Pop
TTITLE0=You Are Everything
TTITLE1=Summer Time
TTITLE2=My Girl
TTITLE3=Time Of The Season
TTITLE4=Ooh, Baby Baby
TTITLE5=Under The Boardwalk
TTITLE6=Everytime You Go Away
TTITLE7=Feel Like Making Love
TTITLE8=Summer Breeze
TTITLE9=Cruisin'
TTITLE10=Touch Me In The Morning
EXTD=YEAR: 1993
EXTT0=
EXTT1=
EXTT2=
EXTT3=
EXTT4=
EXTT5=
EXTT6=
EXTT7=
EXTT8=
EXTT9=
EXTT10=
PLAYORDER=
